<svg xmlns="http://www.w3.org/2000/svg" width="18.948" height="18.947" viewBox="0 0 18.948 18.947">
  <path id="Profile" d="M17.608,13.62a12.177,12.177,0,0,0-2.97-1.785,16.155,16.155,0,0,1-2.282-1.274,8.011,8.011,0,0,0,1.986-4.816,7.57,7.57,0,0,0-.58-3.476C13.239,1.234,12.071,0,9.474,0S5.708,1.234,5.186,2.27a7.561,7.561,0,0,0-.581,3.476,8,8,0,0,0,1.986,4.816,16.075,16.075,0,0,1-2.282,1.274,12.186,12.186,0,0,0-2.97,1.785A5.824,5.824,0,0,0,0,17.345a1.579,1.579,0,0,0,1.578,1.6h15.79a1.579,1.579,0,0,0,1.579-1.6A5.826,5.826,0,0,0,17.608,13.62Zm.042,4.025a.4.4,0,0,1-.282.118H1.578a.4.4,0,0,1-.281-.118.4.4,0,0,1-.114-.283,4.729,4.729,0,0,1,.993-2.9,12.031,12.031,0,0,1,2.663-1.564A12.987,12.987,0,0,0,7.4,11.422l.8-.756L7.51,9.814A6.853,6.853,0,0,1,5.789,5.745,6.546,6.546,0,0,1,6.243,2.8,3.279,3.279,0,0,1,9.474,1.184,3.28,3.28,0,0,1,12.7,2.8a6.55,6.55,0,0,1,.453,2.943,6.849,6.849,0,0,1-1.721,4.068l-.694.853.8.755a13.015,13.015,0,0,0,2.565,1.473,11.978,11.978,0,0,1,2.663,1.564,4.615,4.615,0,0,1,.992,2.9A.4.4,0,0,1,17.65,17.645Z" transform="translate(0)" fill="#89a3b4" opacity="0.998"/>
</svg>
