<svg xmlns="http://www.w3.org/2000/svg" width="20.804" height="19.308" viewBox="132.713 4.163 10.402 9.654"><g data-name="calendar (2)"><path d="M143.093 6.29V4.942c-.155-.415-.415-.675-.882-.778h-1.194V5.2c0 .052-.052.103-.103.155-.208.156-.416.104-.52-.155V4.163h-5.19V5.2c0 .052-.052.103-.104.155-.207.156-.415.104-.519-.155V4.163h-1.142a.936.936 0 0 0-.622.622c-.052.52-.052.987-.052 1.506h10.328Z" fill="#9db2bf" fill-rule="evenodd" data-name="Path 399"/><path d="M143.093 6.914h-10.38v6.176c.052.363.311.623.675.727h8.771c.467-.104.779-.364.883-.83.051-2.025.103-4.05.051-6.073Zm-7.214 5.242c-.052.104-.104.207-.26.207h-.83c-.156 0-.208-.103-.208-.207v-.83c0-.105.104-.208.208-.26h.934c.104 0 .156.104.156.155v.935Zm0-2.907a.405.405 0 0 1-.208.208h-.934a.405.405 0 0 1-.208-.208v-.83c0-.156.104-.208.208-.26h.882c.052 0 .156.052.208.104.052.311.052.675.052.986Zm2.543 2.959c-.052.103-.104.155-.207.155h-.883c-.155 0-.207-.103-.207-.207v-.883c.052-.103.103-.155.155-.207h.986c.104 0 .156.104.156.155.052.312.052.623 0 .987Zm0-2.959c0 .052-.052.104-.104.156a3.144 3.144 0 0 1-.986 0 .405.405 0 0 1-.207-.208v-.882c0-.156.103-.208.207-.26h.883c.051 0 .155.052.207.104.052.467.052.779 0 1.09Zm2.595 2.855c0 .156-.103.207-.207.207h-.883a.394.394 0 0 1-.207-.103 3.142 3.142 0 0 1 0-.987c.052-.103.104-.155.155-.155h.935a.405.405 0 0 1 .207.207v.83Zm0-2.907c0 .104-.052.208-.155.208h-.987c-.103 0-.155-.104-.155-.156v-.986c.052-.104.104-.156.207-.156h.883c.155.052.207.104.207.26v.83Z" fill="#9db2bf" fill-rule="evenodd" data-name="Path 400"/></g></svg>