<svg width="23" height="23" viewBox="0 0 23 23" fill="none" xmlns="http://www.w3.org/2000/svg">
<g id="Group 84">
<g id="Group">
<path id="Ellipse 12" d="M11.5 23C17.8513 23 23 17.8513 23 11.5C23 5.14873 17.8513 0 11.5 0C5.14873 0 0 5.14873 0 11.5C0 17.8513 5.14873 23 11.5 23Z" fill="#029BFA"/>
</g>
<g id="ic_camera_alt_24px">
<path id="Ellipse 14" d="M11.726 13.296C12.6825 13.296 13.458 12.5206 13.458 11.564C13.458 10.6075 12.6825 9.83203 11.726 9.83203C10.7694 9.83203 9.99399 10.6075 9.99399 11.564C9.99399 12.5206 10.7694 13.296 11.726 13.296Z" fill="#FCFEFF"/>
<path id="Path 89" d="M10.102 6.151L9.11299 7.234H7.39599C7.10917 7.23479 6.83432 7.34901 6.63142 7.55172C6.42852 7.75444 6.31404 8.02919 6.31299 8.316V14.816C6.31378 15.103 6.42814 15.378 6.63107 15.5809C6.834 15.7839 7.109 15.8982 7.39599 15.899H16.057C16.344 15.8982 16.619 15.7839 16.8219 15.5809C17.0248 15.378 17.1392 15.103 17.14 14.816V8.316C17.1392 8.02901 17.0248 7.75401 16.8219 7.55108C16.619 7.34815 16.344 7.23379 16.057 7.233H14.34L13.35 6.151H10.102ZM11.726 14.27C11.1908 14.27 10.6676 14.1113 10.2226 13.814C9.77762 13.5166 9.43078 13.094 9.22597 12.5995C9.02116 12.1051 8.96757 11.561 9.07198 11.0361C9.17639 10.5112 9.43412 10.029 9.81256 9.65057C10.191 9.27213 10.6732 9.01441 11.1981 8.91C11.723 8.80558 12.2671 8.85917 12.7615 9.06398C13.256 9.26879 13.6786 9.61563 13.9759 10.0606C14.2733 10.5056 14.432 11.0288 14.432 11.564C14.4317 12.2816 14.1465 12.9697 13.6391 13.4771C13.1317 13.9846 12.4436 14.2697 11.726 14.27Z" fill="#FCFEFF"/>
</g>
</g>
</svg>
