<svg width="16" height="18" viewBox="0 0 16 18" fill="none" xmlns="http://www.w3.org/2000/svg">
<path d="M13.695 0.0500488H2.304C1.87372 0.0516372 1.46163 0.223818 1.15813 0.528825C0.854618 0.833832 0.684471 1.24676 0.685003 1.67705L0.677004 12.197C0.676626 12.4639 0.741702 12.7268 0.86653 12.9627C0.991358 13.1986 1.17213 13.4003 1.393 13.55L8 17.95L14.6 13.55C14.8206 13.4004 15.0012 13.1991 15.126 12.9636C15.2508 12.7281 15.3161 12.4656 15.316 12.199L15.324 1.67905C15.3232 1.24725 15.1513 0.833373 14.846 0.528048C14.5407 0.222723 14.1268 0.0508418 13.695 0.0500488ZM6.377 12.25L2.304 8.18605L3.451 7.03905L6.377 9.95005L12.552 3.77505L13.699 4.93005L6.377 12.25Z" fill="#9DB2BF"/>
</svg>
