<svg xmlns="http://www.w3.org/2000/svg" width="12.437" height="12.437" viewBox="85.193 4.28 12.437 12.437"><g data-name="time"><g data-name="Group 759"><path d="M90.853 4.28h1.117c2.424.314 4.152 1.577 5.186 3.789.246.604.404 1.228.474 1.87v1.117c-.315 2.424-1.578 4.153-3.79 5.186a6.903 6.903 0 0 1-1.87.474h-1.117c-2.424-.315-4.152-1.578-5.186-3.79a6.903 6.903 0 0 1-.474-1.87V9.94c.315-2.423 1.578-4.152 3.79-5.186a6.903 6.903 0 0 1 1.87-.473Zm.097.85c2.168-.093 3.848.758 5.04 2.55.802 1.358.997 2.799.583 4.324-.68 2.04-2.069 3.3-4.166 3.777-2.07.314-3.79-.314-5.161-1.883-1.138-1.467-1.47-3.102-.996-4.906.603-1.834 1.821-3.053 3.655-3.656a7.157 7.157 0 0 1 1.045-.206Z" fill="#9db2bf" fill-rule="evenodd" data-name="Path 490"/></g><g data-name="Group 760"><path d="M91.29 6.757c.301-.034.483.096.546.389l.025 3.157 1.943 1.555c.182.286.13.517-.158.692a.461.461 0 0 1-.389-.024 221.495 221.495 0 0 1-2.161-1.737.653.653 0 0 1-.085-.145 64.127 64.127 0 0 1-.025-3.498.452.452 0 0 1 .304-.389Z" fill="#9db2bf" fill-rule="evenodd" data-name="Path 491"/></g></g></svg>