<svg width="14" height="15" viewBox="0 0 14 15" fill="none" xmlns="http://www.w3.org/2000/svg">
<g id="vuesax/bold/clock">
<g id="clock">
<path id="Vector" d="M7.00001 1.23779C3.78584 1.23779 1.16667 3.85696 1.16667 7.07113C1.16667 10.2853 3.78584 12.9045 7.00001 12.9045C10.2142 12.9045 12.8333 10.2853 12.8333 7.07113C12.8333 3.85696 10.2142 1.23779 7.00001 1.23779ZM9.53751 9.15363C9.45584 9.29363 9.31001 9.36946 9.15834 9.36946C9.08251 9.36946 9.00667 9.35196 8.93667 9.30529L7.12834 8.22613C6.67917 7.95779 6.34667 7.36863 6.34667 6.84946V4.45779C6.34667 4.21863 6.54501 4.02029 6.78417 4.02029C7.02334 4.02029 7.22167 4.21863 7.22167 4.45779V6.84946C7.22167 7.05946 7.39667 7.36863 7.57751 7.47363L9.38584 8.55279C9.59584 8.67529 9.66584 8.94363 9.53751 9.15363Z" fill="#213560"/>
</g>
</g>
</svg>
