<svg xmlns="http://www.w3.org/2000/svg" width="15" height="11.016" viewBox="986.976 2162.801 15 11.016"><g data-name="CompositeLayer"><path d="M986.976 2168.133v.351a239.033 239.033 0 0 0 4.75 5.26.68.68 0 0 0 .147.058c1.101.02 2.203.02 3.304 0 .304-.12.417-.34.34-.66a.45.45 0 0 0-.09-.175 940.518 940.518 0 0 1-4.203-4.658 939.489 939.489 0 0 1 4.204-4.659c.166-.286.131-.545-.103-.776a.68.68 0 0 1-.148-.059 93.121 93.121 0 0 0-3.304 0 .68.68 0 0 0-.147.059 239.033 239.033 0 0 0-4.75 5.259Z" fill="#9db2bf" fill-rule="evenodd" data-name="Path 489"/><path d="M1001.976 2173.465v-.322a2.016 2.016 0 0 0-.31-.41 281.228 281.228 0 0 1-3.997-4.424 281.16 281.16 0 0 1 3.998-4.424c.122-.126.226-.263.31-.41v-.323a.552.552 0 0 0-.355-.337 93.12 93.12 0 0 0-3.304 0 .68.68 0 0 0-.147.059l-4.646 5.083c-.177.234-.177.469 0 .703l4.646 5.083a.68.68 0 0 0 .147.059c1.102.02 2.203.02 3.304 0a.551.551 0 0 0 .354-.337Z" fill="#9db2bf" fill-rule="evenodd" data-name="Path 488"/></g></svg>