<svg width="18" height="18" viewBox="0 0 18 18" fill="none" xmlns="http://www.w3.org/2000/svg">
<g id="arrow">
<path id="Ellipse 11" opacity="0.2" d="M9 18C13.9706 18 18 13.9706 18 9C18 4.02944 13.9706 0 9 0C4.02944 0 0 4.02944 0 9C0 13.9706 4.02944 18 9 18Z" fill="#9DB2BF"/>
<g id="Union 1">
<path id="Vector" d="M9.35348 5.81812C9.54874 6.01338 9.54903 6.33081 9.35412 6.52573L7.23301 8.64683L6.87946 9.00039L7.23301 9.35394L9.35412 11.475C9.54903 11.67 9.54903 11.9871 9.35412 12.182C9.15886 12.3773 8.84143 12.3776 8.64652 12.1827L5.81774 9.35387C5.62282 9.15896 5.62311 8.84153 5.81837 8.64627L8.64652 5.81812C8.84143 5.62321 9.15857 5.62321 9.35348 5.81812Z" fill="white"/>
<path id="Vector_2" d="M9 6.17167L6.17129 9.00024L9.00057 11.8285L6.17235 9.00031L9.00098 6.17275C9.00098 6.17275 9.0007 6.17238 9 6.17167ZM9.70704 5.46449C10.0978 5.85524 10.0984 6.48846 9.70767 6.8792L7.58656 9.00031L9.70767 11.1214C10.0984 11.5122 10.0978 12.1454 9.70767 12.5355C9.31693 12.9262 8.68371 12.9269 8.29296 12.5361L5.46418 9.70735C5.07407 9.31724 5.07407 8.68339 5.46482 8.29264L8.29296 5.46449C8.68371 5.07375 9.31693 5.07438 9.70704 5.46449Z" fill="#9DB2BF"/>
</g>
</g>
</svg>
