<svg xmlns="http://www.w3.org/2000/svg" width="10.753" height="7.332" viewBox="87.824 81.834 10.753 7.332"><path d="M93.2 81.834a5.78 5.78 0 0 0-5.376 3.666 5.78 5.78 0 0 0 5.377 3.666 5.78 5.78 0 0 0 5.376-3.666 5.78 5.78 0 0 0-5.376-3.666Zm0 6.11a2.445 2.445 0 0 1 0-4.888 2.445 2.445 0 0 1 0 4.888Zm0-3.91c-.81 0-1.466.655-1.466 1.466 0 .811.655 1.466 1.467 1.466.81 0 1.466-.655 1.466-1.466 0-.811-.655-1.466-1.466-1.466Z" fill="#fff" fill-rule="evenodd" data-name="ic_remove_red_eye_24px"/></svg>