<svg width="96" height="120" viewBox="0 0 96 120" fill="none" xmlns="http://www.w3.org/2000/svg">
<g clip-path="url(#clip0_394_278)">
<path d="M0.580566 57.3984H95.4193V114.634C95.4193 116.014 94.8642 117.338 93.8761 118.313C92.888 119.289 91.5478 119.837 90.1505 119.837H5.84938C4.45201 119.837 3.11186 119.289 2.12377 118.313C1.13567 117.338 0.580566 116.014 0.580566 114.634V57.3984Z" fill="url(#paint0_linear_394_278)"/>
<path d="M95.4193 57.3983L47.9999 91.2194L0.580566 57.3983L47.9999 23.5771L95.4193 57.3983Z" fill="#029BFA"/>
<path d="M71.7096 23.5772C71.7156 19.1196 70.4331 14.7529 68.0126 10.9904C65.5922 7.22782 62.1345 4.22577 58.0459 2.33705C53.9574 0.448319 49.4078 -0.248593 44.932 0.328217C40.4561 0.905027 36.24 2.73159 32.7791 5.59323C29.3183 8.45487 26.7565 12.2327 25.3948 16.4826C24.0332 20.7326 23.9283 25.2781 25.0924 29.5849C26.2566 33.8917 28.6414 37.7808 31.9666 40.7952C35.2919 43.8096 39.4193 45.824 43.8639 46.6016L46.8145 52.4813C46.929 52.6935 47.0999 52.8709 47.3087 52.9946C47.5175 53.1184 47.7564 53.1837 47.9999 53.1837C48.2435 53.1837 48.4824 53.1184 48.6912 52.9946C48.9 52.8709 49.0708 52.6935 49.1854 52.4813L52.136 46.6016C57.6161 45.6428 62.5801 42.8108 66.1586 38.6013C69.7372 34.3919 71.7022 29.0734 71.7096 23.5772Z" fill="url(#paint1_linear_394_278)"/>
<path d="M51.7143 23.5773L57.7735 17.6196C58.2696 17.1297 58.5482 16.4652 58.5482 15.7724C58.5482 15.0796 58.2696 14.4152 57.7735 13.9253C57.2774 13.4354 56.6046 13.1602 55.9031 13.1602C55.2015 13.1602 54.5287 13.4354 54.0326 13.9253L47.9998 19.909L41.967 13.9253C41.7214 13.6827 41.4298 13.4903 41.1089 13.359C40.7879 13.2277 40.444 13.1602 40.0966 13.1602C39.3951 13.1602 38.7222 13.4354 38.2262 13.9253C37.7301 14.4152 37.4514 15.0796 37.4514 15.7724C37.4514 16.4652 37.7301 17.1297 38.2262 17.6196L44.2853 23.5773L38.2262 29.535C37.9805 29.7776 37.7857 30.0656 37.6528 30.3825C37.5198 30.6994 37.4514 31.0391 37.4514 31.3822C37.4514 32.075 37.7301 32.7394 38.2262 33.2293C38.7222 33.7192 39.3951 33.9945 40.0966 33.9945C40.444 33.9945 40.7879 33.9269 41.1089 33.7956C41.4298 33.6643 41.7214 33.4719 41.967 33.2293L47.9998 27.2456L54.0326 33.2293C54.5287 33.7192 55.2015 33.9945 55.9031 33.9945C56.6046 33.9945 57.2774 33.7192 57.7735 33.2293C58.2696 32.7394 58.5482 32.075 58.5482 31.3822C58.5482 30.6894 58.2696 30.0249 57.7735 29.535L51.7143 23.5773Z" fill="#FFB369"/>
<path d="M95.4193 114.634C95.4193 116.014 94.8642 117.338 93.8761 118.313C92.888 119.289 91.5478 119.837 90.1505 119.837H5.84938C4.45201 119.837 3.11186 119.289 2.12377 118.313C1.13567 117.338 0.580566 116.014 0.580566 114.634L44.4962 76.078C45.461 75.2295 46.708 74.7607 47.9999 74.7607C49.2919 74.7607 50.5388 75.2295 51.5037 76.078L95.4193 114.634Z" fill="url(#paint2_linear_394_278)"/>
</g>
<defs>
<linearGradient id="paint0_linear_394_278" x1="47.9999" y1="119.837" x2="47.9999" y2="57.3984" gradientUnits="userSpaceOnUse">
<stop stop-color="#54A5FF"/>
<stop offset="1" stop-color="#8AD3FE"/>
</linearGradient>
<linearGradient id="paint1_linear_394_278" x1="47.9999" y1="53.1837" x2="47.9999" y2="0.162584" gradientUnits="userSpaceOnUse">
<stop stop-color="#D3E6F5"/>
<stop offset="1" stop-color="#F0F7FC"/>
</linearGradient>
<linearGradient id="paint2_linear_394_278" x1="-15.2259" y1="74.7772" x2="-12.6564" y2="119.841" gradientUnits="userSpaceOnUse">
<stop stop-color="#54A5FF"/>
<stop offset="1" stop-color="#8AD3FE"/>
</linearGradient>
<clipPath id="clip0_394_278">
<rect width="94.8387" height="120" fill="white" transform="translate(0.580566)"/>
</clipPath>
</defs>
</svg>
