<svg xmlns="http://www.w3.org/2000/svg" width="15.538" height="9.888" viewBox="78.731 4.69 15.538 9.888"><path d="M82.969 4.69h9.887c.777 0 1.413.629 1.413 1.413v6.356h-1.413a2.12 2.12 0 0 1-2.118 2.12 2.12 2.12 0 0 1-2.12-2.12h-3.884a2.12 2.12 0 0 1-2.118 2.12 2.12 2.12 0 0 1-2.12-2.12h-1.765V8.928L82.97 4.69Zm9.887 4.238V6.103h-2.825v2.825h2.825Zm-2.118 4.59c.586 0 1.059-.472 1.059-1.059 0-.586-.473-1.06-1.06-1.06-.586 0-1.059.474-1.059 1.06 0 .587.473 1.06 1.06 1.06Zm-4.944-4.59h2.825V6.103h-2.825v2.825Zm-3.178 4.59c.586 0 1.059-.472 1.059-1.059 0-.586-.473-1.06-1.06-1.06-.586 0-1.059.474-1.059 1.06 0 .587.473 1.06 1.06 1.06Zm1.765-4.59V6.103h-.706L80.85 8.928h3.531Z" fill="#9db2bf" fill-rule="evenodd" data-name="ic_airport_shuttle_24px"/></svg>