<svg id="_1" data-name="1" xmlns="http://www.w3.org/2000/svg" width="20.003" height="20.028" viewBox="0 0 20.003 20.028">
  <g id="home">
    <path id="Path_478" data-name="Path 478" d="M255.2-266.01a4.922,4.922,0,0,0-1.56.63c-.32.2-5.75,4.65-6.19,5.07a4.508,4.508,0,0,0-1.14,1.94l-.11.38v4.23c0,4.01,0,4.25.09,4.56a4.155,4.155,0,0,0,3,3.03,6.793,6.793,0,0,0,1.9.08l1.49-.01.32-.15a1.99,1.99,0,0,0,.97-.95l.17-.35.02-2.12a8.114,8.114,0,0,1,.13-2.39c.06-.15.16-.36.22-.47a2.4,2.4,0,0,1,.91-.82,1.42,1.42,0,0,1,.77-.13,1.35,1.35,0,0,1,.77.13,2.593,2.593,0,0,1,.91.83,3.24,3.24,0,0,1,.22.49,8.954,8.954,0,0,1,.12,2.39l.03,2.09.17.35a1.99,1.99,0,0,0,.97.95l.32.15,1.49.01a7.811,7.811,0,0,0,1.9-.08,4.049,4.049,0,0,0,2.8-2.45c.31-.76.29-.46.31-4.95.01-4.51.01-4.49-.28-5.26a4.821,4.821,0,0,0-.96-1.45c-.5-.49-5.86-4.88-6.24-5.12A4.941,4.941,0,0,0,255.2-266.01Z" transform="translate(-246.2 266.109)" fill="#9db2bf"/>
  </g>
</svg>
