<svg xmlns="http://www.w3.org/2000/svg" width="20" height="22.527" viewBox="0 0 20 22.527">
  <g id="notifications" transform="translate(0 0)">
    <path id="Path_479" data-name="Path 479" d="M255.53-275.17a3.549,3.549,0,0,0-1.59.81,4.073,4.073,0,0,0-.92,1.38c-.11.33-.12.33-.48.49a7.338,7.338,0,0,0-2.45,1.82,6.673,6.673,0,0,0-1.28,2.55,12.283,12.283,0,0,0-.32,2.92c-.1,3.22-.34,3.98-1.78,5.77-.63.78-.7.94-.7,1.54a1.389,1.389,0,0,0,.17.82,1.967,1.967,0,0,0,.99.94l.3.12h17.08l.3-.12a1.967,1.967,0,0,0,.99-.94,1.318,1.318,0,0,0,.17-.82c0-.6-.07-.76-.7-1.54a7.761,7.761,0,0,1-1.05-1.54,9.728,9.728,0,0,1-.72-4.23c0-3.67-1.22-5.91-3.91-7.21l-.51-.25-.13-.31a3.558,3.558,0,0,0-.84-1.29,2.813,2.813,0,0,0-2.02-.91A5.659,5.659,0,0,0,255.53-275.17Z" transform="translate(-246.01 275.178)" fill="#9db2bf"/>
    <path id="Path_480" data-name="Path 480" d="M252.36-255.08c-.1.1-.08.19.16.55a4.211,4.211,0,0,0,3.97,1.85,4.221,4.221,0,0,0,2.99-1.85c.24-.37.26-.45.16-.55C259.56-255.17,252.44-255.17,252.36-255.08Z" transform="translate(-246.01 275.178)" fill="#9db2bf"/>
  </g>
</svg>
