<svg xmlns="http://www.w3.org/2000/svg" width="20.001" height="19.987" viewBox="0 0 20.001 19.987">
  <g id="seo" transform="translate(0 0)">
    <path id="Path_481" data-name="Path 481" d="M254.02-265.73c-.07.01-.28.04-.47.07a9.127,9.127,0,0,0-4.23,1.87,8.879,8.879,0,0,0-3.24,5.94,10.835,10.835,0,0,0,.12,2.73,8.926,8.926,0,0,0,5.75,6.64,8.949,8.949,0,0,0,8.38-1.3l.18-.13,2,2c1.1,1.1,2.07,2.03,2.16,2.08a1.028,1.028,0,0,0,1.21-.34,1.072,1.072,0,0,0,.09-.95c-.04-.09-.98-1.06-2.08-2.16l-2-2,.11-.15a9.04,9.04,0,0,0,1.83-5.43,8.946,8.946,0,0,0-6.07-8.43,7.736,7.736,0,0,0-2.64-.43C254.59-265.74,254.09-265.74,254.02-265.73Z" transform="translate(-246.042 265.737)" fill="#9db2bf"/>
  </g>
</svg>
