<svg xmlns="http://www.w3.org/2000/svg" width="20.014" height="18.153" viewBox="0 0 20.014 18.153">
  <g id="ticket-_4_" transform="translate(0 0)">
    <path id="Path_482" data-name="Path 482" d="M264.554-263.873c-.407.116-14.041,5.32-14.114,5.378-.044.029,4.1.058,9.2.058,6.163,0,9.259-.015,9.259-.058s-.509-1.09-1.134-2.34c-1.206-2.427-1.352-2.631-1.933-2.907A1.959,1.959,0,0,0,264.554-263.873Z" transform="translate(-248.887 263.927)" fill="#9db2bf"/>
    <path id="Path_483" data-name="Path 483" d="M247.22-259.36a1.809,1.809,0,0,0-1.06.99l-.14.29-.01,1.31a7.586,7.586,0,0,0,.04,1.43c.06.15.21.22.48.22a2.878,2.878,0,0,1,1.67.62,1.186,1.186,0,0,1,.03,1.86,2.506,2.506,0,0,1-1.59.64c-.67.06-.63-.02-.63,1.51,0,1.34.03,1.58.25,1.95a1.921,1.921,0,0,0,1.3.87c.14.03,1.15.04,2.24.04h1.97v-1.7l.13-.13c.12-.11.16-.13.28-.11.27.05.28.08.3,1.04l.02.88,5.83.01c3.56,0,5.93,0,6.11-.03a1.959,1.959,0,0,0,1.33-.87c.21-.37.25-.61.25-1.95,0-1.52.03-1.45-.62-1.51a2.51,2.51,0,0,1-1.58-.61,1.233,1.233,0,0,1,0-1.88,3.009,3.009,0,0,1,1.71-.62c.24,0,.39-.08.45-.22a8.954,8.954,0,0,0,.04-1.44l-.01-1.31-.17-.34a1.835,1.835,0,0,0-.88-.88l-.25-.12-6.1-.01-6.11-.01v.86c0,.84,0,.87-.1.96a.434.434,0,0,1-.22.1c-.35,0-.39-.12-.39-1.12v-.8h-2.15A10.391,10.391,0,0,0,247.22-259.36Zm5.14,3.02c.11.11.11.12.11.85a5.253,5.253,0,0,1-.04.82.412.412,0,0,1-.17.14.346.346,0,0,1-.44-.18,4.906,4.906,0,0,1,0-1.53A.32.32,0,0,1,252.36-256.34Zm.01,3.87c.1.09.1.12.1.86,0,.71,0,.76-.1.86a.348.348,0,0,1-.59-.18,5.611,5.611,0,0,1-.01-.79c.01-.65.02-.68.12-.76A.377.377,0,0,1,252.37-252.47Z" transform="translate(-246.006 265.783)" fill="#9db2bf"/>
  </g>
</svg>
