<svg xmlns="http://www.w3.org/2000/svg" width="20" height="22.315" viewBox="0 0 20 22.315">
  <g id="user" transform="translate(0 0)">
    <path id="Path_484" data-name="Path 484" d="M255.43-267.35a5.819,5.819,0,0,0-3.46,1.63,5.781,5.781,0,0,0-.53,7.72,5.8,5.8,0,0,0,7.42,1.47,5.8,5.8,0,0,0,2.83-6.14,5.857,5.857,0,0,0-4.53-4.58A8.7,8.7,0,0,0,255.43-267.35Z" transform="translate(-246 267.363)" fill="#9db2bf"/>
    <path id="Path_485" data-name="Path 485" d="M251.33-255.28a7.3,7.3,0,0,0-4.81,3.26,4.264,4.264,0,0,0-.52,1.12,7.368,7.368,0,0,0,1.62,2.28,11.451,11.451,0,0,0,7.01,3.52,17.514,17.514,0,0,0,2.71,0,11.553,11.553,0,0,0,5.87-2.47,15.749,15.749,0,0,0,1.97-2.03,5.275,5.275,0,0,0,.82-1.34,3.376,3.376,0,0,0-.46-1,7.618,7.618,0,0,0-2.95-2.7,5.958,5.958,0,0,0-2.45-.68.9.9,0,0,0-.48.17,7.184,7.184,0,0,1-1.18.66,5.992,5.992,0,0,1-2.7.51,6.089,6.089,0,0,1-3.23-1.03,3.517,3.517,0,0,0-.52-.29c-.07-.01-.15-.03-.19-.04A3.163,3.163,0,0,0,251.33-255.28Z" transform="translate(-246 267.363)" fill="#9db2bf"/>
  </g>
</svg>
