<svg xmlns="http://www.w3.org/2000/svg" width="24" height="24" viewBox="0 0 24 24">
  <path id="Path_305" data-name="Path 305" d="M10.422-.5h2.156A12.135,12.135,0,0,1,22.586,6.813a13.323,13.323,0,0,1,.914,3.609v2.156a12.135,12.135,0,0,1-7.312,10.008,13.322,13.322,0,0,1-3.609.914H10.422A12.135,12.135,0,0,1,.414,16.188,13.322,13.322,0,0,1-.5,12.578V10.422A12.135,12.135,0,0,1,6.813.414,13.322,13.322,0,0,1,10.422-.5Zm3.047,6A1.007,1.007,0,0,1,14.336,7q-2.2,2.261-4.43,4.5,2.228,2.239,4.43,4.5a1.008,1.008,0,0,1-.844,1.5,1.591,1.591,0,0,1-.633-.258L7.773,12.156a.964.964,0,0,1,0-1.312l5.086-5.086A1.679,1.679,0,0,1,13.469,5.5Z" transform="translate(0.5 0.5)" fill="#fff" fill-rule="evenodd" opacity="0.998"/>
</svg>
