<svg width="80" height="80" viewBox="0 0 80 80" fill="none" xmlns="http://www.w3.org/2000/svg">
<g id="_&#195;&#131;&#194;&#171;&#195;&#131;&#194;&#174;&#195;&#131;&#194;&#169;_1">
<g id="Clip path group">
<mask id="mask0_437_17" style="mask-type:luminance" maskUnits="userSpaceOnUse" x="1" y="1" width="77" height="78">
<g id="clippath">
<path id="Vector" d="M39.4326 78.2261C60.4296 78.2261 77.4511 61.0828 77.4511 39.9356C77.4511 18.7883 60.4296 1.64508 39.4326 1.64508C18.4356 1.64508 1.41415 18.7883 1.41415 39.9356C1.41415 61.0828 18.4356 78.2261 39.4326 78.2261Z" fill="white"/>
</g>
</mask>
<g mask="url(#mask0_437_17)">
<g id="Group">
<g id="Group_2">
<path id="Vector_2" d="M80.8696 -2.6087H-1.73914V80.8871H80.8696V-2.6087Z" fill="#9BADB8"/>
<path id="Vector_3" d="M2.74639 77.1932C4.12656 73.7149 6.90925 71.3112 10.414 69.6799C13.743 68.129 17.2924 66.9706 20.7013 65.5516C22.8035 64.6732 24.8897 63.7239 26.8578 62.6267C28.9216 61.4748 29.8769 59.6922 29.7714 57.4559C29.7076 56.0723 29.797 54.679 29.7555 53.2954C29.7427 52.9029 29.6437 52.4105 29.3689 52.1403C27.2028 49.9941 26.1198 47.3909 25.3083 44.6527C25.1773 44.2054 24.8195 43.7163 24.4041 43.4493C21.7428 41.731 20.8738 37.7604 22.6023 35.2731C22.8834 34.8677 22.9984 34.2306 22.8834 33.7576C22.0687 30.4048 21.4393 27.0391 21.6502 23.5929C21.8611 20.1371 23.1901 17.5565 25.8226 14.873C28.174 12.479 30.7395 11.311 34.1771 10.7608C37.6946 10.1977 40.9821 10.3521 44.8894 11.134C45.9948 11.3561 48.6241 12.6174 49.0746 12.656C54.132 13.1 56.7071 17.3796 57.2342 21.4982C57.7773 25.7391 57.0713 29.8578 55.8317 33.9378C55.7294 34.2789 55.64 34.8001 55.8381 35.0061C57.3812 36.6181 57.0872 38.4297 56.6304 40.2509C56.2821 41.6409 55.5793 42.8347 54.0937 43.5716C53.7295 43.7517 53.4451 44.2569 53.3493 44.6591C52.6784 47.4135 51.5059 49.9394 49.4452 52.1016C49.228 52.3269 49.0586 52.6744 49.0554 52.9672C49.0395 54.7723 49.0427 56.5807 49.1034 58.3858C49.18 60.7315 50.8382 62.2374 52.8924 63.2155C55.9531 64.6699 59.1767 65.854 62.3555 67.1025C66.4673 68.7178 70.6557 70.2526 73.547 73.5347C74.5022 74.6222 75.0933 75.9705 75.8505 77.1964C51.7742 93.4103 27.4328 93.9734 2.74319 77.1964L2.74639 77.1932Z" fill="#FCFEFF"/>
</g>
</g>
</g>
</g>
<path id="Vector_4" d="M39.4326 1.64512C60.429 1.64512 77.4511 18.789 77.4511 39.9356C77.4511 61.0823 60.429 78.2261 39.4326 78.2261C18.4362 78.2261 1.41417 61.0823 1.41417 39.9356C1.41417 18.789 18.4362 1.64512 39.4326 1.64512ZM39.4326 0.67981C29.0207 0.67981 19.2349 4.76306 11.8708 12.1766C4.50996 19.5934 0.455719 29.4492 0.455719 39.9356C0.455719 50.4221 4.50996 60.2778 11.8708 67.6946C19.2317 75.1082 29.0207 79.1914 39.4326 79.1914C49.8446 79.1914 59.6303 75.1082 66.9944 67.6946C74.3553 60.2811 78.4095 50.4221 78.4095 39.9356C78.4095 29.4492 74.3553 19.5934 66.9944 12.1766C59.6335 4.76306 49.8446 0.67981 39.4326 0.67981Z" fill="#9BADB8"/>
</g>
</svg>
