<svg width="32" height="31" viewBox="0 0 32 31" fill="none" xmlns="http://www.w3.org/2000/svg">
<rect x="0.5" width="31" height="31" rx="15.5" fill="#029BFA" fill-opacity="0.5"/>
<path d="M21 13.375L15.7625 18.6125C15.5812 18.7938 15.3438 18.9063 15.0875 18.9313L13.2563 19.1C13.2563 19.1 13.2062 19.1 13.1875 19.1C12.9813 19.1 12.7812 19.0188 12.6375 18.8688C12.475 18.7063 12.3938 18.475 12.4125 18.2438L12.5813 16.4125C12.6063 16.1563 12.7188 15.9188 12.9 15.7375L18.125 10.5L21 13.375ZM22.2125 9.73126L21.7687 9.28751C21.1 8.61876 20.0063 8.61876 19.3375 9.28751L18.7875 9.83751L21.6625 12.7125L22.2125 12.1625C22.5375 11.8375 22.7188 11.4063 22.7188 10.95C22.7188 10.4938 22.5375 10.0563 22.2125 9.73751V9.73126ZM21.4688 19.8813V16.25C21.4688 15.9938 21.2563 15.7813 21 15.7813C20.7437 15.7813 20.5312 15.9938 20.5312 16.25V19.8813C20.5312 20.6563 19.9 21.2875 19.125 21.2875H11.625C10.85 21.2875 10.2188 20.6563 10.2188 19.8813V12.375C10.2188 11.6 10.85 10.9688 11.625 10.9688H15.2563C15.5125 10.9688 15.725 10.7563 15.725 10.5C15.725 10.2438 15.5125 10.0313 15.2563 10.0313H11.625C10.3313 10.0313 9.28125 11.0813 9.28125 12.375V19.875C9.28125 21.1688 10.3313 22.2188 11.625 22.2188H19.125C20.4187 22.2188 21.4688 21.1688 21.4688 19.875V19.8813Z" fill="#FCFEFF"/>
</svg>
