<svg width="19" height="19" viewBox="0 0 19 19" fill="none" xmlns="http://www.w3.org/2000/svg">
<path d="M15.3791 7.03096V3.31296H11.6581L9.03509 0.688965L6.41109 3.31296H2.69309V7.03096L0.0690918 9.65497L2.69309 12.279V15.999H6.41109L9.03509 18.623L11.6581 15.999H15.3791V12.278L18.0031 9.65396L15.3791 7.03096ZM9.03709 14.411C8.09644 14.411 7.17692 14.132 6.3948 13.6094C5.61268 13.0868 5.00309 12.3441 4.64312 11.475C4.28315 10.606 4.18897 9.64969 4.37248 8.72712C4.55599 7.80454 5.00895 6.9571 5.67409 6.29197C6.33923 5.62683 7.18667 5.17386 8.10924 4.99035C9.03182 4.80684 9.98809 4.90102 10.8571 5.26099C11.7262 5.62096 12.469 6.23055 12.9916 7.01267C13.5142 7.79479 13.7931 8.71432 13.7931 9.65497C13.792 10.9164 13.2903 12.1258 12.3982 13.0175C11.5061 13.9093 10.2965 14.4104 9.03509 14.411H9.03709ZM9.03709 6.48396C8.40993 6.48396 7.79685 6.66994 7.27538 7.01837C6.75391 7.36681 6.34748 7.86205 6.10747 8.44148C5.86746 9.0209 5.80467 9.65848 5.92702 10.2736C6.04938 10.8887 6.35138 11.4537 6.79486 11.8972C7.23833 12.3407 7.80335 12.6427 8.41846 12.765C9.03358 12.8874 9.67116 12.8246 10.2506 12.5846C10.83 12.3446 11.3252 11.9381 11.6737 11.4167C12.0221 10.8952 12.2081 10.2821 12.2081 9.65497C12.2082 9.23834 12.1262 8.82577 11.9668 8.44086C11.8074 8.05594 11.5736 7.70624 11.2789 7.41173C10.9842 7.11722 10.6344 6.88369 10.2494 6.7245C9.86434 6.56531 9.45172 6.48357 9.03509 6.48396H9.03709Z" fill="#9DB2BF"/>
</svg>
