<svg width="13" height="17" viewBox="0 0 13 17" fill="none" xmlns="http://www.w3.org/2000/svg">
<path d="M4.95802 0.481934C3.56551 0.483281 2.19806 0.852395 0.994019 1.55193C2.19889 2.24589 3.19964 3.24506 3.89549 4.44885C4.59133 5.65263 4.9577 7.01851 4.9577 8.40893C4.9577 9.79936 4.59133 11.1652 3.89549 12.369C3.19964 13.5728 2.19889 14.572 0.994019 15.2659C2.04651 15.8744 3.2249 16.2326 4.43799 16.3127C5.65109 16.3928 6.86635 16.1927 7.98972 15.7279C9.11309 15.2631 10.1144 14.546 10.9163 13.6322C11.7181 12.7184 12.299 11.6323 12.6138 10.4581C12.9287 9.28383 12.9691 8.05288 12.732 6.86049C12.4949 5.6681 11.9866 4.54626 11.2464 3.58179C10.5063 2.61732 9.55415 1.83609 8.46371 1.29855C7.37326 0.761022 6.17375 0.481607 4.95802 0.481934Z" fill="#9DB2BF"/>
</svg>
