<svg width="20" height="20" viewBox="0 0 20 20" fill="none" xmlns="http://www.w3.org/2000/svg">
<path d="M15.38 8.79C13.9304 11.6246 11.6246 13.9304 8.79 15.38L6.59 13.18C6.4592 13.049 6.29441 12.9571 6.11419 12.9147C5.93398 12.8723 5.7455 12.881 5.57 12.94C4.41787 13.3186 3.21273 13.511 2 13.51C1.73478 13.51 1.48043 13.6154 1.29289 13.8029C1.10536 13.9904 1 14.2448 1 14.51V18C1 18.2652 1.10536 18.5196 1.29289 18.7071C1.48043 18.8946 1.73478 19 2 19C4.23247 19 6.44308 18.5603 8.50562 17.706C10.5682 16.8516 12.4422 15.5994 14.0208 14.0208C15.5994 12.4422 16.8516 10.5682 17.706 8.50562C18.5603 6.44308 19 4.23247 19 2C19 1.73478 18.8946 1.48043 18.7071 1.29289C18.5196 1.10536 18.2652 1 18 1H14.5C14.2348 1 13.9804 1.10536 13.7929 1.29289C13.6054 1.48043 13.5 1.73478 13.5 2C13.5018 3.2128 13.3093 4.41806 12.93 5.57C12.873 5.74648 12.8662 5.93533 12.9103 6.11546C12.9545 6.29559 13.0478 6.45989 13.18 6.59L15.38 8.79Z" stroke="white"/>
</svg>
