<svg width="16" height="16" viewBox="0 0 16 16" fill="none" xmlns="http://www.w3.org/2000/svg">
<path d="M10.416 5.14209L8.47303 7.08509L6.53003 5.14209L5.47303 6.19909L7.41603 8.14209L5.47303 10.0851L6.53003 11.1421L8.47303 9.20009L10.416 11.1421L11.473 10.0851L9.53102 8.14209L11.473 6.19909L10.416 5.14209ZM8.47303 0.642093C6.98967 0.642093 5.53962 1.08196 4.30625 1.90607C3.07288 2.73018 2.11159 3.90152 1.54393 5.27197C0.976272 6.64241 0.827747 8.15041 1.11714 9.60527C1.40653 11.0601 2.12083 12.3965 3.16972 13.4454C4.21862 14.4943 5.55499 15.2086 7.00985 15.498C8.46471 15.7874 9.9727 15.6388 11.3432 15.0712C12.7136 14.5035 13.8849 13.5422 14.709 12.3089C15.5332 11.0755 15.973 9.62545 15.973 8.14209C15.9739 7.15692 15.7806 6.18124 15.404 5.27088C15.0274 4.36052 14.475 3.53336 13.7784 2.83674C13.0818 2.14012 12.2546 1.58771 11.3442 1.21112C10.4339 0.834537 9.4582 0.641172 8.47303 0.642093ZM8.47303 14.1421C7.28634 14.1421 6.1263 13.7902 5.1396 13.1309C4.15291 12.4716 3.38387 11.5345 2.92975 10.4382C2.47562 9.34184 2.3568 8.13544 2.58831 6.97155C2.81983 5.80767 3.39127 4.73857 4.23039 3.89945C5.0695 3.06034 6.1386 2.48889 7.30248 2.25738C8.46637 2.02587 9.67277 2.14469 10.7691 2.59882C11.8655 3.05294 12.8026 3.82198 13.4618 4.80867C14.1211 5.79537 14.473 6.95541 14.473 8.14209C14.4709 9.73274 13.8381 11.2576 12.7133 12.3824C11.5886 13.5072 10.0637 14.14 8.47303 14.1421Z" fill="white"/>
</svg>
