<svg width="15" height="15" viewBox="0 0 15 15" fill="none" xmlns="http://www.w3.org/2000/svg">
<path d="M7.5 0C6.01664 0 4.5666 0.439867 3.33323 1.26398C2.09986 2.08809 1.13856 3.25943 0.570907 4.62987C0.00324965 6.00032 -0.145275 7.50832 0.144114 8.96318C0.433503 10.418 1.14781 11.7544 2.1967 12.8033C3.2456 13.8522 4.58197 14.5665 6.03683 14.8559C7.49168 15.1453 8.99968 14.9968 10.3701 14.4291C11.7406 13.8614 12.9119 12.9001 13.736 11.6668C14.5601 10.4334 15 8.98336 15 7.5C15 5.51088 14.2098 3.60322 12.8033 2.1967C11.3968 0.790176 9.48913 0 7.5 0ZM7.5 13.5C5.9087 13.5 4.38258 12.8679 3.25736 11.7426C2.13214 10.6174 1.5 9.0913 1.5 7.5C1.49719 6.1674 1.94354 4.87273 2.767 3.825L11.174 12.233C10.1265 13.0562 8.83226 13.5026 7.5 13.5ZM12.233 11.175L3.825 2.767C4.87274 1.94354 6.1674 1.49719 7.5 1.5C9.0913 1.5 10.6174 2.13214 11.7426 3.25736C12.8679 4.38258 13.5 5.9087 13.5 7.5C13.5028 8.8326 13.0565 10.1273 12.233 11.175Z" fill="white"/>
</svg>
