<svg width="15" height="21" viewBox="0 0 15 21" fill="none" xmlns="http://www.w3.org/2000/svg">
<path d="M2.813 20.625H4.688V18.75H2.813V20.625ZM6.563 20.625H8.438V18.75H6.563V20.625ZM8.438 0H6.563V9.375H8.438V0ZM11.775 2.287L10.416 3.647C11.4605 4.28561 12.2676 5.24821 12.7142 6.3881C13.1609 7.52798 13.2226 8.78264 12.89 9.96086C12.5574 11.1391 11.8486 12.1762 10.8718 12.9143C9.89505 13.6523 8.70373 14.0507 7.47947 14.0489C6.2552 14.047 5.06512 13.6449 4.0906 12.9038C3.11608 12.1628 2.41056 11.1234 2.08157 9.94421C1.75258 8.76497 1.81817 7.51051 2.26832 6.372C2.71848 5.2335 3.52852 4.27339 4.575 3.638L3.225 2.288C1.91216 3.19876 0.924492 4.50499 0.405944 6.01633C-0.112603 7.52767 -0.134928 9.16512 0.342224 10.69C0.819376 12.2149 1.77106 13.5476 3.05859 14.4938C4.34611 15.44 5.90218 15.9503 7.5 15.9503C9.09782 15.9503 10.6539 15.44 11.9414 14.4938C13.2289 13.5476 14.1806 12.2149 14.6578 10.69C15.1349 9.16512 15.1126 7.52767 14.5941 6.01633C14.0755 4.50499 13.0878 3.19776 11.775 2.287ZM10.313 20.625H12.188V18.75H10.313V20.625Z" fill="white"/>
</svg>
