<svg width="24" height="14" viewBox="0 0 24 14" fill="none" xmlns="http://www.w3.org/2000/svg">
<path d="M12.65 5.00001C12.1782 3.66558 11.2499 2.5409 10.0291 1.82475C8.80824 1.1086 7.37354 0.847078 5.97855 1.08642C4.58356 1.32576 3.31809 2.05055 2.40581 3.13269C1.49352 4.21483 0.993164 5.58464 0.993164 7.00001C0.993164 8.41539 1.49352 9.78519 2.40581 10.8673C3.31809 11.9495 4.58356 12.6743 5.97855 12.9136C7.37354 13.1529 8.80824 12.8914 10.0291 12.1753C11.2499 11.4591 12.1782 10.3344 12.65 9.00001H17V13H21V9.00001H23V5.00001H12.65ZM7.00002 9.00001C6.60446 9.00001 6.21778 8.88271 5.88888 8.66295C5.55998 8.44319 5.30363 8.13083 5.15226 7.76538C5.00088 7.39993 4.96128 6.99779 5.03845 6.60983C5.11562 6.22187 5.3061 5.8655 5.5858 5.5858C5.86551 5.30609 6.22188 5.11561 6.60984 5.03844C6.9978 4.96127 7.39993 5.00088 7.76539 5.15225C8.13084 5.30363 8.44319 5.55997 8.66296 5.88887C8.88272 6.21777 9.00002 6.60445 9.00002 7.00001C8.99844 7.52996 8.78721 8.03775 8.41248 8.41248C8.03775 8.78721 7.52996 8.99843 7.00002 9.00001Z" stroke="white"/>
</svg>
