<svg width="23" height="22" viewBox="0 0 23 22" fill="none" xmlns="http://www.w3.org/2000/svg">
<path d="M15.049 18.677L18.359 21.156V18.677H22.119V7.479H14.636V0H0.958984V11.2H4.71898V13.679L8.02498 11.2H8.43798V18.679L15.049 18.677ZM20.875 17.437H17.115V18.677L15.459 17.437H9.67798V8.719H20.878L20.875 17.437ZM7.61198 9.958L5.95898 11.2V9.958H2.19898V1.24H13.399V7.479H10.68L7.81798 1.754L4.78398 7.822L5.89298 8.376L6.65098 6.859H8.98498L9.29498 7.479H8.43798V9.958H7.61198ZM8.36498 5.62H7.27098L7.81798 4.527L8.36498 5.62Z" fill="white"/>
<path d="M14.387 14.065C13.9438 14.4982 13.3846 14.7938 12.777 14.916V16.156C13.7108 16.0328 14.5801 15.612 15.256 14.956C15.9319 15.612 16.8012 16.0328 17.735 16.156V14.916C17.1274 14.7938 16.5682 14.4982 16.125 14.065C16.5342 13.5904 16.8407 13.036 17.025 12.437H18.357V11.197H15.878V9.95801H14.638V11.198H12.157V12.438H13.483C13.6685 13.037 13.9764 13.591 14.387 14.065ZM15.256 13.165C15.0765 12.939 14.9232 12.6935 14.799 12.433H15.714C15.5901 12.6949 15.4367 12.9418 15.257 13.169L15.256 13.165Z" fill="white"/>
</svg>
