<svg width="215" height="160" viewBox="0 0 215 160" fill="none" xmlns="http://www.w3.org/2000/svg">
<g clip-path="url(#clip0_477_2278)">
<g clip-path="url(#clip1_477_2278)">
<path d="M27.2554 43.636C26.1399 43.7578 24.9848 43.6969 23.9221 44.0393C22.404 44.5339 20.8595 45.135 19.4866 46.0101C10.8795 51.5342 4.55616 59.6378 1.94895 70.5112C-0.717661 81.6052 1.40111 92.098 8.29866 100.833C11.7507 105.208 15.8827 108.617 20.536 111.166C21.3743 111.63 22.206 112.11 23.5789 112.894C21.6581 113.875 20.1928 114.621 18.7275 115.367L18.8661 116.089C19.3215 116.188 19.7836 116.401 20.2258 116.356C22.5426 116.127 24.8594 115.853 27.1762 115.557C28.6613 115.359 30.2586 115.146 30.9055 113.312C31.5985 111.334 30.6612 109.675 29.493 108.397C27.889 106.639 26.1333 105.049 24.3577 103.527C23.9881 103.215 23.2291 103.512 22.6548 103.527C22.6746 104.189 22.4634 105.049 22.7472 105.482C23.6251 106.837 24.6878 108.031 25.7043 109.31C25.5194 109.401 25.4006 109.523 25.328 109.492C10.8003 103.58 2.16677 91.398 3.64529 74.0646C3.71789 73.22 3.86971 72.3678 4.09412 71.5612C7.32178 59.9118 13.6319 51.3136 23.2423 46.0481C24.5162 45.3481 25.9683 45.0741 27.3412 44.5948C27.3148 44.2752 27.2884 43.948 27.2554 43.6284L27.2554 43.636Z" fill="#47E5B5"/>
</g>
<g clip-path="url(#clip2_477_2278)">
<rect width="140.606" height="35.1515" transform="translate(37.1969 26.6665)" fill="#9BADB8"/>
<path d="M55.8295 44.963L68.8884 37.8679C70.376 37.0597 72.2606 37.5346 73.1197 38.9348C73.9788 40.3351 73.4845 42.1265 71.997 42.9346L58.938 50.0297C57.4505 50.8379 55.5548 50.345 54.6957 48.9448C53.8366 47.5445 54.3419 45.7711 55.8295 44.963Z" fill="#FCFEFF"/>
<path d="M68.8884 50.03L55.8295 42.935C54.3419 42.1268 53.8366 40.3534 54.6957 38.9532C55.5548 37.5529 57.4505 37.0601 58.938 37.8683L71.997 44.9633C73.4845 45.7715 73.9788 47.5628 73.1197 48.9631C72.2606 50.3634 70.376 50.8382 68.8884 50.03Z" fill="#FCFEFF"/>
<path d="M67.0218 36.8539V51.0439C67.0218 52.6603 65.6425 53.9588 63.9243 53.9588C62.2061 53.9588 60.8047 52.6603 60.8047 51.0439V36.8539C60.8047 35.2375 62.2061 33.939 63.9243 33.939C65.6425 33.939 67.0218 35.2375 67.0218 36.8539Z" fill="#FCFEFF"/>
<path d="M84.7903 44.963L97.8493 37.8679C99.3368 37.0597 101.221 37.5346 102.081 38.9348C102.94 40.3351 102.445 42.1265 100.958 42.9346L87.8989 50.0297C86.4113 50.8379 84.5156 50.345 83.6565 48.9448C82.7974 47.5445 83.3028 45.7711 84.7903 44.963Z" fill="#FCFEFF"/>
<path d="M97.8493 50.0295L84.7903 42.9345C83.3028 42.1263 82.7974 40.353 83.6565 38.9527C84.5156 37.5524 86.4113 37.0596 87.8989 37.8678L100.958 44.9628C102.445 45.771 102.94 47.5623 102.081 48.9626C101.221 50.3629 99.3368 50.8377 97.8493 50.0295Z" fill="#FCFEFF"/>
<path d="M95.9827 36.8539V51.0439C95.9827 52.6603 94.6034 53.9588 92.8852 53.9588C91.167 53.9588 89.7656 52.6603 89.7656 51.0439V36.8539C89.7656 35.2375 91.167 33.939 92.8852 33.939C94.6034 33.939 95.9827 35.2375 95.9827 36.8539Z" fill="#FCFEFF"/>
<path d="M113.751 44.963L126.81 37.8679C128.297 37.0597 130.182 37.5346 131.041 38.9348C131.9 40.3351 131.406 42.1265 129.919 42.9346L116.86 50.0297C115.372 50.8379 113.476 50.345 112.617 48.9448C111.758 47.5445 112.263 45.7711 113.751 44.963Z" fill="#FCFEFF"/>
<path d="M126.81 50.0295L113.751 42.9345C112.263 42.1263 111.758 40.353 112.617 38.9527C113.476 37.5524 115.372 37.0596 116.859 37.8678L129.918 44.9628C131.406 45.771 131.9 47.5623 131.041 48.9626C130.182 50.3629 128.297 50.8377 126.81 50.0295Z" fill="#FCFEFF"/>
<path d="M124.943 36.8539V51.0439C124.943 52.6603 123.564 53.9588 121.846 53.9588C120.128 53.9588 118.726 52.6603 118.726 51.0439V36.8539C118.726 35.2375 120.128 33.939 121.846 33.939C123.564 33.939 124.943 35.2375 124.943 36.8539Z" fill="#FCFEFF"/>
<path d="M142.712 44.963L155.771 37.8679C157.258 37.0597 159.143 37.5346 160.002 38.9348C160.861 40.3351 160.367 42.1265 158.879 42.9346L145.82 50.0297C144.333 50.8379 142.437 50.345 141.578 48.9448C140.719 47.5445 141.224 45.7711 142.712 44.963Z" fill="#FCFEFF"/>
<path d="M155.771 50.0295L142.712 42.9345C141.224 42.1263 140.719 40.353 141.578 38.9527C142.437 37.5524 144.333 37.0596 145.82 37.8678L158.879 44.9628C160.367 45.771 160.861 47.5623 160.002 48.9626C159.143 50.3629 157.258 50.8377 155.771 50.0295Z" fill="#FCFEFF"/>
<path d="M153.904 36.8539V51.0439C153.904 52.6603 152.525 53.9588 150.807 53.9588C149.089 53.9588 147.687 52.6603 147.687 51.0439V36.8539C147.687 35.2375 149.089 33.939 150.807 33.939C152.525 33.939 153.904 35.2375 153.904 36.8539Z" fill="#FCFEFF"/>
</g>
<g clip-path="url(#clip3_477_2278)">
<rect width="140.606" height="35.1515" transform="translate(37.1969 97.8086)" fill="#029BFA"/>
<path d="M55.8294 116.105L68.8883 109.01C70.3758 108.202 72.2605 108.677 73.1196 110.077C73.9787 111.477 73.4844 113.269 71.9969 114.077L58.9379 121.172C57.4504 121.98 55.5547 121.487 54.6956 120.087C53.8365 118.687 54.3418 116.913 55.8294 116.105Z" fill="#FCFEFF"/>
<path d="M68.8883 121.172L55.8294 114.077C54.3418 113.269 53.8365 111.496 54.6956 110.095C55.5547 108.695 57.4504 108.202 58.9379 109.01L71.9969 116.105C73.4844 116.914 73.9787 118.705 73.1196 120.105C72.2605 121.505 70.3758 121.98 68.8883 121.172Z" fill="#FCFEFF"/>
<path d="M67.0217 107.996V122.186C67.0217 123.802 65.6424 125.101 63.9242 125.101C62.206 125.101 60.8046 123.802 60.8046 122.186V107.996C60.8046 106.38 62.206 105.081 63.9242 105.081C65.6424 105.081 67.0217 106.38 67.0217 107.996Z" fill="#FCFEFF"/>
<path d="M84.7902 116.105L97.8491 109.01C99.3367 108.202 101.221 108.677 102.08 110.077C102.94 111.477 102.445 113.269 100.958 114.077L87.8987 121.172C86.4112 121.98 84.5155 121.487 83.6564 120.087C82.7973 118.687 83.3026 116.913 84.7902 116.105Z" fill="#FCFEFF"/>
<path d="M97.8493 121.172L84.7903 114.077C83.3028 113.269 82.7974 111.496 83.6565 110.095C84.5156 108.695 86.4113 108.202 87.8989 109.01L100.958 116.105C102.445 116.914 102.94 118.705 102.081 120.105C101.221 121.505 99.3368 121.98 97.8493 121.172Z" fill="#FCFEFF"/>
<path d="M95.9826 107.996V122.186C95.9826 123.802 94.6033 125.101 92.8851 125.101C91.1669 125.101 89.7655 123.802 89.7655 122.186V107.996C89.7655 106.38 91.1669 105.081 92.8851 105.081C94.6033 105.081 95.9826 106.38 95.9826 107.996Z" fill="#FCFEFF"/>
<path d="M113.751 116.105L126.81 109.01C128.297 108.202 130.182 108.677 131.041 110.077C131.9 111.477 131.406 113.269 129.919 114.077L116.86 121.172C115.372 121.98 113.476 121.487 112.617 120.087C111.758 118.687 112.263 116.913 113.751 116.105Z" fill="#FCFEFF"/>
<path d="M126.81 121.172L113.751 114.077C112.263 113.269 111.758 111.496 112.617 110.095C113.476 108.695 115.372 108.202 116.86 109.01L129.919 116.105C131.406 116.914 131.9 118.705 131.041 120.105C130.182 121.505 128.297 121.98 126.81 121.172Z" fill="#FCFEFF"/>
<path d="M124.943 107.996V122.186C124.943 123.802 123.564 125.101 121.846 125.101C120.128 125.101 118.726 123.802 118.726 122.186V107.996C118.726 106.38 120.128 105.081 121.846 105.081C123.564 105.081 124.943 106.38 124.943 107.996Z" fill="#FCFEFF"/>
<path d="M142.712 116.105L155.771 109.01C157.258 108.202 159.143 108.677 160.002 110.077C160.861 111.477 160.367 113.269 158.879 114.077L145.82 121.172C144.333 121.98 142.437 121.487 141.578 120.087C140.719 118.687 141.224 116.913 142.712 116.105Z" fill="#FCFEFF"/>
<path d="M155.771 121.172L142.712 114.077C141.224 113.269 140.719 111.496 141.578 110.095C142.437 108.695 144.333 108.202 145.82 109.01L158.879 116.105C160.367 116.914 160.861 118.705 160.002 120.105C159.143 121.505 157.258 121.98 155.771 121.172Z" fill="#FCFEFF"/>
<path d="M153.904 107.996V122.186C153.904 123.802 152.525 125.101 150.807 125.101C149.088 125.101 147.687 123.802 147.687 122.186V107.996C147.687 106.38 149.088 105.081 150.807 105.081C152.525 105.081 153.904 106.38 153.904 107.996Z" fill="#FCFEFF"/>
</g>
<g clip-path="url(#clip4_477_2278)">
<path d="M187.744 43.6355C188.86 43.7573 190.015 43.6964 191.078 44.0388C192.596 44.5334 194.14 45.1345 195.513 46.0096C204.12 51.5337 210.444 59.6374 213.051 70.5107C215.718 81.6047 213.599 92.0976 206.701 100.833C203.249 105.208 199.117 108.617 194.464 111.166C193.626 111.63 192.794 112.109 191.421 112.893C193.342 113.875 194.807 114.62 196.272 115.366L196.134 116.089C195.678 116.188 195.216 116.401 194.774 116.355C192.457 116.127 190.14 115.853 187.824 115.556C186.339 115.358 184.741 115.145 184.094 113.312C183.401 111.333 184.339 109.674 185.507 108.396C187.111 106.638 188.867 105.048 190.642 103.526C191.012 103.214 191.771 103.511 192.345 103.526C192.325 104.188 192.536 105.048 192.253 105.482C191.375 106.836 190.312 108.031 189.296 109.309C189.48 109.401 189.599 109.522 189.672 109.492C204.2 103.58 212.833 91.3975 211.355 74.0641C211.282 73.2195 211.13 72.3673 210.906 71.5607C207.678 59.9113 201.368 51.3131 191.758 46.0476C190.484 45.3476 189.032 45.0736 187.659 44.5943C187.685 44.2747 187.711 43.9475 187.744 43.6279L187.744 43.6355Z" fill="#47E5B5"/>
</g>
</g>
<defs>
<clipPath id="clip0_477_2278">
<rect width="213.333" height="160" fill="white" transform="translate(0.833374)"/>
</clipPath>
<clipPath id="clip1_477_2278">
<rect width="72.7273" height="30.303" fill="white" transform="matrix(-4.37114e-08 1 1 4.37114e-08 0.833374 43.6362)"/>
</clipPath>
<clipPath id="clip2_477_2278">
<rect x="37.1969" y="26.6665" width="140.606" height="34.7781" rx="12.1212" fill="white"/>
</clipPath>
<clipPath id="clip3_477_2278">
<rect x="37.1969" y="97.8086" width="140.606" height="34.7781" rx="12.1212" fill="white"/>
</clipPath>
<clipPath id="clip4_477_2278">
<rect width="72.7273" height="30.303" fill="white" transform="translate(214.167 43.6362) rotate(90)"/>
</clipPath>
</defs>
</svg>
