<svg width="17" height="19" viewBox="0 0 17 19" fill="none" xmlns="http://www.w3.org/2000/svg">
<path fill-rule="evenodd" clip-rule="evenodd" d="M8.49267 17.621C4.01113 17.621 0.36438 13.9742 0.36438 9.49267C0.36438 5.01113 4.01113 1.36438 8.49267 1.36438C12.9742 1.36438 16.621 5.01113 16.621 9.49267C16.621 13.9742 12.9742 17.621 8.49267 17.621Z" fill="#FFC107"/>
<path fill-rule="evenodd" clip-rule="evenodd" d="M11.246 14.106C11.2021 14.106 11.1582 14.106 11.1142 14.0767L8.49267 13.0662L5.88576 14.0767C5.7686 14.1353 5.62214 14.106 5.51962 14.0328C5.4171 13.9595 5.35852 13.8424 5.37317 13.7106L5.53427 10.9133L3.74751 8.74571C3.67428 8.64319 3.64499 8.51138 3.68893 8.37957C3.73286 8.2624 3.82074 8.15988 3.95255 8.13059L6.66198 7.42761L8.18512 5.05502C8.2437 4.9525 8.37551 4.89392 8.49267 4.89392C8.62448 4.89392 8.74165 4.9525 8.81488 5.05502L10.338 7.42761L13.0474 8.13059C13.1646 8.15988 13.2671 8.2624 13.3111 8.37957C13.355 8.51138 13.3257 8.64319 13.2378 8.74571L11.4657 10.9133L11.6268 13.7106C11.6268 13.8424 11.5682 13.9595 11.4657 14.0328C11.4071 14.0913 11.3193 14.106 11.246 14.106Z" fill="white"/>
</svg>
