<svg xmlns="http://www.w3.org/2000/svg" width="21.053" height="18.046" viewBox="263.473 189.988 10.527 9.023"><path d="M269.489 189.988a4.512 4.512 0 0 0-4.512 4.512h-1.504l1.95 1.95.035.07 2.025-2.02h-1.503a3.506 3.506 0 0 1 3.509-3.51 3.506 3.506 0 0 1 3.508 3.51 3.506 3.506 0 0 1-3.508 3.509 3.48 3.48 0 0 1-2.477-1.033l-.712.712a4.489 4.489 0 0 0 3.189 1.323 4.512 4.512 0 0 0 0-9.023Zm-.502 2.507V195l2.146 1.273.36-.606-1.754-1.043v-2.13h-.752Z" fill="#9db2bf" fill-rule="evenodd" data-name="ic_history_24px"/></svg>