<svg width="153" height="104" viewBox="0 0 153 104" fill="none" xmlns="http://www.w3.org/2000/svg">
<g clip-path="url(#clip0_477_2726)">
<g clip-path="url(#clip1_477_2726)">
<path d="M123.237 70.7358C123.201 71.0901 123.181 71.4505 123.181 71.8165C123.181 77.2894 127.48 81.7653 132.893 82.0665C132.995 82.0721 133.199 82.0754 133.38 82.0771C133.568 82.0785 133.719 82.2307 133.719 82.4177V94.2467C133.719 99.6333 129.34 104 123.939 104H14.0398C8.63862 104 4.26005 99.6333 4.26005 94.2467V83.3429C4.26005 82.6528 4.7729 82.0746 5.45792 81.9791C5.96909 81.9079 6.46823 81.7993 6.95309 81.6553C11.2088 80.3928 14.31 76.468 14.31 71.8168C14.31 69.2832 13.3906 66.9665 11.8663 65.1798C11.8605 65.1711 11.8518 65.1594 11.84 65.1505C10.2505 63.2939 8.00483 62.0105 5.46128 61.6542C4.77486 61.5579 4.25977 60.9811 4.25977 60.2896V51.0009C4.25977 45.6143 8.63834 41.2476 14.0395 41.2476H123.941C129.341 41.2476 133.718 45.6129 133.718 50.9981V61.2179C133.718 61.4041 133.565 61.5565 133.379 61.5562C133.317 61.5562 133.264 61.5562 133.237 61.5568C128.03 61.6749 123.772 65.6496 123.237 70.7358Z" fill="#78A5CE"/>
<g opacity="0.5" filter="url(#filter0_f_477_2726)">
<path d="M133.719 50.9978V61.2159C133.719 61.403 133.568 61.5548 133.38 61.5565C133.194 61.5582 132.981 61.5618 132.874 61.568C127.832 61.8575 123.76 65.7683 123.237 70.7361L22.3395 99.7006C17.1472 101.191 11.7314 98.2011 10.2365 93.0256L6.95309 81.6552C11.2088 80.3928 14.31 76.468 14.31 71.8168C14.31 69.2832 13.3906 66.9665 11.8663 65.1798C11.8605 65.1711 11.8518 65.1594 11.84 65.1505C10.2505 63.2939 8.00483 62.0105 5.46128 61.6542C4.77486 61.5579 4.25977 60.9811 4.25977 60.2896V51.0008C4.25977 45.6143 8.63834 41.2476 14.0395 41.2476H123.941C129.341 41.2476 133.719 45.6129 133.719 50.9978Z" fill="#4E7DA7"/>
</g>
<path d="M130.859 60.6873L99.4549 69.7021L95.4182 70.8608L25.2452 91.0039C20.055 92.4947 14.6382 89.5047 13.1433 84.3286L10.1748 74.0435C9.95558 73.2841 10.3187 72.4739 11.0373 72.1411C15.5575 70.0464 18.0008 64.9259 16.5782 60.0008C15.1591 55.0796 10.3668 52.0373 5.425 52.6546C4.64032 52.7526 3.89567 52.2903 3.67676 51.5326L1.14777 42.7693C-0.344324 37.5932 2.65105 32.1882 7.84117 30.7001L78.0142 10.557L82.0509 9.39839L113.455 0.383543C118.645 -1.1073 124.062 1.87997 125.557 7.05604L128.246 16.373C128.377 16.8289 128.128 17.3082 127.678 17.4612C127.406 17.5536 127.129 17.653 126.958 17.7278C122.301 19.7603 119.759 24.9668 121.204 29.9687C122.702 35.1579 127.949 38.259 133.167 37.1842C133.215 37.1744 133.276 37.1602 133.346 37.1431C133.812 37.0292 134.286 37.3009 134.419 37.7607L137.552 48.6179C139.044 53.7942 136.049 59.1964 130.859 60.6873Z" fill="#D3E1F5"/>
<path d="M125.463 6.75953C123.85 1.768 118.545 -1.07801 113.455 0.382964L7.84097 30.6996C2.84569 32.1334 -0.115258 37.192 1.00115 42.1846L125.463 6.75953Z" fill="#B3CEEC"/>
<path d="M80.0324 9.97705L97.437 70.2816L25.2453 91.0043C20.0554 92.4941 14.6372 89.506 13.1434 84.3302L10.1752 74.0453C9.95596 73.2859 10.319 72.4757 11.0377 72.143C15.5582 70.048 18.0012 64.9274 16.5797 60.0012C15.159 55.0789 10.3669 52.0384 5.42538 52.6542C4.64071 52.7519 3.89606 52.2896 3.67743 51.5319L1.14843 42.7692C-0.345337 37.5934 2.65088 32.1898 7.84072 30.7L80.0324 9.97705Z" fill="#BCD3ED"/>
<path d="M80.0319 9.97705L7.84047 30.6998C4.68861 31.6093 1.9113 34.2214 1.08239 37.6138C0.701394 39.0689 0.653244 40.6284 1.00009 42.182C1.00037 42.1829 1.00037 42.184 1.00065 42.1848L82.6225 18.9531L80.0319 9.97705Z" fill="#98BCE5"/>
<path d="M113.41 18.2035L95.206 23.429C94.4006 23.6602 93.5597 23.1964 93.3279 22.3932L91.8181 17.1619C91.5863 16.3587 92.0513 15.52 92.8567 15.2888L111.06 10.0633C111.866 9.83217 112.707 10.2959 112.939 11.0991L114.448 16.3305C114.68 17.1339 114.215 17.9723 113.41 18.2035Z" fill="#FF6969"/>
<path d="M118.319 95.2905H98.2423C97.3845 95.2905 96.6895 94.5973 96.6895 93.7419V88.7322C96.6895 87.8768 97.3845 87.1836 98.2423 87.1836H118.319C119.176 87.1836 119.872 87.8768 119.872 88.7322V93.7419C119.872 94.5973 119.176 95.2905 118.319 95.2905Z" fill="#41E7B5"/>
<path d="M99.4559 69.704L95.4192 70.8626L94.6074 68.0456C94.2854 66.9345 94.9293 65.7731 96.0435 65.4548C97.1548 65.1337 98.3222 65.7758 98.6413 66.887L99.4559 69.704Z" fill="#D3E1F5"/>
<path d="M95.8526 57.2245L94.313 51.8837C93.991 50.7725 92.8265 50.1304 91.7151 50.4515C90.6009 50.7697 89.9571 51.9311 90.2762 53.0423L91.8187 58.3831C92.0818 59.3016 92.9217 59.8991 93.8343 59.8991C94.0274 59.8991 94.2234 59.8711 94.4165 59.8153C95.5307 59.497 96.1746 58.3356 95.8526 57.2245ZM91.5247 42.2211L89.9823 36.8803C89.6603 35.7692 88.4986 35.1299 87.3844 35.4481C86.2702 35.7692 85.6264 36.9278 85.9483 38.039L87.488 43.3797C87.7539 44.2983 88.5938 44.8957 89.5036 44.8957C89.6967 44.8957 89.8927 44.8678 90.0858 44.812C91.2 44.4937 91.8439 43.3323 91.5247 42.2211ZM87.194 27.2178L85.6516 21.8798C85.3324 20.7686 84.1651 20.1265 83.0537 20.4448C81.9395 20.7658 81.2957 21.9272 81.6176 23.0384L83.1573 28.3764C83.4232 29.2949 84.2631 29.8924 85.1757 29.8924C85.366 29.8924 85.562 29.8672 85.7551 29.8114C86.8693 29.4903 87.5132 28.3289 87.194 27.2178Z" fill="#D3E1F5"/>
<path d="M81.4264 14.8057C81.2332 14.8616 81.0373 14.8867 80.8441 14.8867C79.9315 14.8867 79.0917 14.2893 78.8285 13.3735L78.0139 10.5566L82.0507 9.39795L82.8625 12.2149C83.1844 13.3261 82.5406 14.4847 81.4264 14.8057Z" fill="#D3E1F5"/>
<path d="M112.819 50.7746C111.907 50.7746 111.067 50.1771 110.802 49.2594C110.482 48.148 111.125 46.988 112.239 46.6681L123.523 43.429C124.635 43.109 125.8 43.7503 126.121 44.862C126.442 45.9735 125.799 47.1335 124.684 47.4534L113.401 50.6925C113.207 50.7481 113.011 50.7746 112.819 50.7746Z" fill="#98BCE5"/>
<path d="M114.901 57.9884C113.989 57.9884 113.149 57.391 112.884 56.473C112.564 55.3619 113.207 54.2016 114.321 53.8816L125.605 50.6428C126.717 50.3229 127.882 50.9642 128.203 52.0759C128.524 53.187 127.881 54.3473 126.766 54.6673L115.483 57.9061C115.289 57.9619 115.093 57.9884 114.901 57.9884Z" fill="#98BCE5"/>
<path d="M23.5108 81.0987C22.5987 81.0987 21.7592 80.5013 21.4944 79.5836C21.1735 78.4722 21.8168 77.3122 22.9313 76.9922L38.844 72.4245C39.9562 72.1048 41.1216 72.7458 41.4422 73.8575C41.763 74.969 41.1197 76.129 40.0052 76.4489L24.0925 81.0166C23.8985 81.0722 23.7031 81.0987 23.5108 81.0987Z" fill="#596C76"/>
<path d="M86.4089 92.9119H64.0886C62.9288 92.9119 61.989 91.9744 61.989 90.818C61.989 89.6616 62.9288 88.7241 64.0886 88.7241H86.4089C87.5687 88.7241 88.5085 89.6616 88.5085 90.818C88.5085 91.9744 87.5687 92.9119 86.4089 92.9119Z" fill="#60B7FF"/>
</g>
<g clip-path="url(#clip2_477_2726)">
<path d="M133.459 80.472L141.342 92.6547C143.519 96.0184 148.244 96.5199 151.078 93.6856C153.913 90.8513 153.411 86.1265 150.047 83.9494L137.865 76.0664L133.459 80.472Z" fill="#E65F5F"/>
<path d="M126.853 73.8646C125.028 75.6898 125.028 78.6471 126.853 80.4722C128.675 82.2936 131.634 82.297 133.459 80.4722L137.865 76.0666C139.688 74.243 139.688 71.2842 137.865 69.4606C136.04 67.6356 133.082 67.6355 131.257 69.4606L126.853 73.8646Z" fill="#FF6969"/>
<path d="M110.335 79.4171C95.7137 79.4171 83.8607 67.5641 83.8607 52.9427C83.8607 38.3213 95.7137 26.4683 110.335 26.4683C124.957 26.4683 136.81 38.3213 136.81 52.9427C136.81 67.5641 124.957 79.4171 110.335 79.4171Z" fill="#4C6778"/>
<path d="M96.402 39.0092C88.7074 46.7038 88.7074 59.1808 96.402 66.8754C104.097 74.57 116.574 74.57 124.268 66.8754C131.963 59.1808 131.963 46.7038 124.268 39.0092C116.574 31.3146 104.097 31.3146 96.402 39.0092Z" fill="#FCFEFF"/>
<g clip-path="url(#clip3_477_2726)">
<path d="M109.65 65C110.87 65 111.859 64.011 111.859 62.791C111.859 61.571 110.87 60.582 109.65 60.582C108.43 60.582 107.441 61.571 107.441 62.791C107.441 64.011 108.43 65 109.65 65Z" fill="#029BFA"/>
<path d="M117.003 46.8413C116.804 43.0085 113.64 39.9456 109.801 39.8682C109.75 39.8672 109.7 39.8667 109.65 39.8667C105.986 39.8667 102.865 42.5675 102.358 46.2057C102.31 46.543 102.287 46.8876 102.287 47.23C102.287 48.45 103.276 49.439 104.496 49.439C105.716 49.439 106.705 48.45 106.705 47.23C106.705 47.0912 106.714 46.9521 106.733 46.8164C106.939 45.3434 108.217 44.2557 109.712 44.2853C110.449 44.3001 111.153 44.5965 111.694 45.1198C112.234 45.6427 112.553 46.3354 112.591 47.0702C112.634 47.8885 112.348 48.665 111.786 49.2568C111.223 49.8491 110.465 50.1753 109.65 50.1753C108.43 50.1753 107.441 51.1643 107.441 52.3843V56.7532C107.441 57.9732 108.43 58.9621 109.65 58.9621C110.87 58.9621 111.859 57.9732 111.859 56.7532V54.2512C113.041 53.8779 114.125 53.2097 114.99 52.2988C116.394 50.8197 117.109 48.8815 117.003 46.8413Z" fill="#029BFA"/>
</g>
</g>
</g>
<defs>
<filter id="filter0_f_477_2726" x="0.793099" y="37.7809" width="136.392" height="65.7698" filterUnits="userSpaceOnUse" color-interpolation-filters="sRGB">
<feFlood flood-opacity="0" result="BackgroundImageFix"/>
<feBlend mode="normal" in="SourceGraphic" in2="BackgroundImageFix" result="shape"/>
<feGaussianBlur stdDeviation="1.73333" result="effect1_foregroundBlur_477_2726"/>
</filter>
<clipPath id="clip0_477_2726">
<rect width="152.967" height="104" fill="white" transform="translate(0.0166016)"/>
</clipPath>
<clipPath id="clip1_477_2726">
<rect width="137.171" height="104" fill="white" transform="translate(0.764404)"/>
</clipPath>
<clipPath id="clip2_477_2726">
<rect width="69.3333" height="70.2" fill="white" transform="matrix(-1 0 0 1 152.983 26)"/>
</clipPath>
<clipPath id="clip3_477_2726">
<rect width="25.1333" height="25.1333" fill="white" transform="translate(97.0833 39.8667)"/>
</clipPath>
</defs>
</svg>
