<svg xmlns="http://www.w3.org/2000/svg" width="40" height="40.005" viewBox="273.778 17.999 20 20.002"><g data-name="price-tag"><path d="M284.587 38.001a.286.286 0 0 1-.2-.083l-7.41-7.41.405-.404 7.205 7.209 8.503-8.503-10.22-10.216-7.342 1.142-1.143 7.343 2.191 2.191-.403.406-2.285-2.286a.286.286 0 0 1-.109-.245l1.217-7.689a.286.286 0 0 1 .237-.237l7.688-1.217a.286.286 0 0 1 .246.08l10.528 10.528c.111.112.111.292 0 .403l-8.905 8.905a.286.286 0 0 1-.203.083Z" fill="#9db2bf" fill-rule="evenodd" data-name="Path 492"/><path d="M278.866 25.36a2.267 2.267 0 1 1 .004-4.534 2.267 2.267 0 0 1-.004 4.533Zm0-3.779a1.511 1.511 0 1 0 1.073.446 1.511 1.511 0 0 0-1.073-.453Z" fill="#9db2bf" fill-rule="evenodd" data-name="Path 493"/><path d="M284.403 23.9h.755v9.842h-.755V23.9Z" fill="#9db2bf" fill-rule="evenodd" data-name="Path 494"/><path d="M287.174 30.85a1.889 1.889 0 1 1 0-3.778 1.889 1.889 0 0 1 0 3.778Zm0-3.022a1.133 1.133 0 1 0 1.134 1.133 1.133 1.133 0 0 0-1.134-1.14Z" fill="#9db2bf" fill-rule="evenodd" data-name="Path 495"/><path d="M282.3 30.85a1.889 1.889 0 1 1 0-3.778 1.889 1.889 0 0 1 0 3.778Zm0-3.022a1.133 1.133 0 1 0 1.133 1.133 1.133 1.133 0 0 0-1.133-1.14Z" fill="#9db2bf" fill-rule="evenodd" data-name="Path 496"/></g></svg>