<svg xmlns="http://www.w3.org/2000/svg" width="35.862" height="39.261" viewBox="0 0 23.908 26.174"><g data-name="seat"><g data-name="Group 627"><path d="M7.861 0h8.38c.717.24 1.196.718 1.436 1.436.638 3.591 1.276 7.182 1.835 10.773-.08 1.038-.639 1.676-1.676 1.915H6.346c-1.118-.24-1.677-.957-1.677-2.154.639-3.511 1.197-7.022 1.836-10.534C6.665.718 7.063.24 7.86 0Z" fill="#9db2bf" fill-rule="evenodd" data-name="Path 401"/></g><g data-name="Group 628"><path d="M16.958 26.174H7.063c-.718-.32-.957-.798-.718-1.596.16-.32.4-.479.718-.559h3.75v-2.713H3.713c-.798-.32-1.357-.878-1.516-1.676 0-1.356 0-2.713-.08-4.07-.24-.558-.718-.877-1.357-.797-.558-.24-.878-.719-.718-1.357.16-.558.559-.878 1.197-.798 1.756.16 2.793 1.117 3.192 2.793 0 .16 0 .399.08.559.479-.4.957-.559 1.516-.639h12.05c.558.08 1.117.24 1.516.639.08-1.836 1.037-2.953 2.793-3.352 1.037-.16 1.596.32 1.516 1.357-.08.399-.32.638-.718.798-.639-.08-1.118.239-1.357.798-.08 1.356-.08 2.713-.08 4.07-.24.797-.718 1.356-1.516 1.675h-7.102v2.713h3.75c.719.24.958.718.799 1.437-.16.319-.4.558-.719.718Z" fill="#9db2bf" fill-rule="evenodd" data-name="Path 402"/></g></g></svg>