<?xml version="1.0" encoding="utf-8"?>
<!-- Generator: Adobe Illustrator 26.3.1, SVG Export Plug-In . SVG Version: 6.00 Build 0)  -->
<svg version="1.1" id="Layer_1" xmlns="http://www.w3.org/2000/svg" xmlns:xlink="http://www.w3.org/1999/xlink" x="0px" y="0px"
	 viewBox="0 0 23.9 26.2" style="enable-background:new 0 0 23.9 26.2;" xml:space="preserve">
<style type="text/css">
	.st0{opacity:0.993;fill-rule:evenodd;clip-rule:evenodd;fill:#039BF9;enable-background:new    ;}
	.st1{opacity:0.989;fill-rule:evenodd;clip-rule:evenodd;fill:#039BF9;enable-background:new    ;}
	.st2{opacity:0.938;fill-rule:evenodd;clip-rule:evenodd;fill:#D9E6ED;enable-background:new    ;}
	.st3{opacity:0.977;fill-rule:evenodd;clip-rule:evenodd;fill:#D9E6ED;enable-background:new    ;}
	.st4{opacity:0.964;fill-rule:evenodd;clip-rule:evenodd;fill:#D9E6ED;enable-background:new    ;}
	.st5{opacity:0.967;fill-rule:evenodd;clip-rule:evenodd;fill:#D9E6ED;enable-background:new    ;}
	.st6{opacity:0.905;fill-rule:evenodd;clip-rule:evenodd;fill:#D9E6ED;enable-background:new    ;}
	.st7{opacity:0.983;fill-rule:evenodd;clip-rule:evenodd;fill:#D9E6ED;enable-background:new    ;}
	.st8{opacity:0.928;fill-rule:evenodd;clip-rule:evenodd;fill:#D9E6ED;enable-background:new    ;}
	.st9{opacity:0.966;fill-rule:evenodd;clip-rule:evenodd;fill:#D9E6ED;enable-background:new    ;}
</style>
<g id="seat-booked" transform="translate(-240.249 -239)">
	<g id="Layer_1_00000142892272239534264680000010334023928483500935_" transform="translate(240.249 239)">
		<g id="Group_660" transform="translate(5.059)">
			<path id="Path_413" class="st0" d="M14.1,11.7c0,0.6-0.4,1.2-0.9,1.5c-0.2,0.2-0.4,0.2-0.7,0.2H1.6c-1-0.1-1.7-1-1.6-2l0.9-5.4
				C1,5.5,1.1,5.1,1.1,4.7c0.2-1.1,0.4-2.3,0.6-3.3C1.9,0.7,2.4,0.2,3,0H11c0.7,0.2,1.2,0.7,1.4,1.4C12.9,4.8,13.5,8.2,14.1,11.7z"
				/>
		</g>
		<g id="Group_661" transform="translate(0 13.35)">
			<path id="Path_414" class="st1" d="M17,12.9H7.1c-0.6-0.1-0.9-0.7-0.8-1.3c0-0.1,0-0.1,0.1-0.2c0.1-0.3,0.4-0.5,0.7-0.5h3.7V8.3
				H3.7C3,8.1,2.4,7.4,2.2,6.7c0-1.3,0-2.6-0.1-3.9C1.9,2.3,1.3,2,0.8,2.1C0.2,1.9-0.1,1.3,0,0.8C0.2,0.2,0.7-0.1,1.2,0
				c1.6,0,2.9,1.1,3.2,2.6c0,0.2,0,0.4,0.1,0.5c0.4-0.3,1-0.6,1.5-0.6h12c0.6,0,1.1,0.3,1.5,0.6c0-1.6,1.2-3,2.8-3.2
				c1-0.2,1.6,0.3,1.5,1.3c-0.1,0.4-0.4,0.7-0.7,0.8C22.6,2,22,2.3,21.8,2.8c-0.1,1.3-0.1,2.6-0.1,3.9C21.5,7.4,21,8,20.2,8.3h-7.1
				v2.6h3.7c0.6,0.1,0.9,0.6,0.8,1.2c0,0.1,0,0.1,0,0.2C17.5,12.5,17.3,12.8,17,12.9z"/>
		</g>
	</g>
	<g id="Layer_3" transform="translate(244.85 245.113)">
		<g id="Group_662" transform="translate(1.438)">
			<path id="Path_415" class="st2" d="M3.3,3.6C3.1,3.8,2.9,4,2.6,4.2c-0.9-1-1.8-2-2.6-3C0.1,0.8,0.2,0.4,0.2,0
				C1.2,1.2,2.2,2.4,3.3,3.6z"/>
		</g>
		<g id="Group_663" transform="translate(5.752 0.151)">
			<path id="Path_416" class="st3" d="M4.8,1.7C4.5,0.6,3.5-0.1,2.3,0c-0.5,0.1-1,0.3-1.4,0.6C0,1.3-0.3,2.5,0.2,3.6
				c0.6,1.2,2.1,1.8,3.3,1.2C4.7,4.2,5.2,2.9,4.8,1.7L4.8,1.7z M2.3,3.7C2,3.9,1.8,3.7,1.9,3.3L2,3.2C2.4,3.2,2.6,3.3,2.3,3.7
				L2.3,3.7z M3.6,3.3C3.5,3.3,3.4,3.1,3.5,3c0,0,0,0,0,0c0-0.1,0.1-0.1,0.2-0.2C3.9,2.8,4.1,3,4,3.2C3.9,3.3,3.9,3.3,3.6,3.3
				L3.6,3.3z"/>
		</g>
		<g id="Group_664" transform="translate(5.071 3.935)">
			<path id="Path_417" class="st4" d="M0,0h0.8c0.7,1.2,2.1,1.6,3.4,1.1c0.4-0.1,0.7-0.4,1-0.7h0.1c1.1,0.8,2,1.5,3,2.3
				C8.3,3,8.4,3,8.4,3.2v4.8c0.5,0.3,1,0.7,1.4,1.1C9.7,9.3,9.5,9.5,9.3,9.7H9.2C8.7,9.2,8.1,8.8,7.5,8.6C8,8.2,8.1,7.5,7.8,7
				L7.6,6.7C7.3,6.6,7,6.4,6.7,6.3c0-0.8,0-1.7-0.1-2.6C6.1,3.3,5.5,2.9,5,2.4v2.4C3.2,3.4,1.5,1.7,0,0z"/>
		</g>
		<g id="Group_665" transform="translate(3.727 4.39)">
			<path id="Path_418" class="st5" d="M0.5,0l3.4,3.4c0.7,0.6,1.3,1.2,2,1.7v0.1c-1-0.4-2-0.7-3-1.1C2.6,3.6,2.4,3,2.3,2.4H2
				c0.1,0.6,0.4,1.2,0.7,1.8c1.9,0.7,3.8,1.4,5.8,2C9,6.4,9.2,6.9,9,7.4C9,7.5,9,7.6,8.9,7.6C8.7,7.9,8.4,8,8.2,8
				C5.9,7.3,3.7,6.5,1.5,5.8L1.3,5.5c-0.6-1-1-2.2-1.2-3.3C-0.1,1.4,0.1,0.6,0.5,0z"/>
		</g>
		<g id="Group_666" transform="translate(4.163 8.703)">
			<path id="Path_419" class="st6" d="M0,0c0.2,0.5,0.5,1,0.8,1.5C0.8,1.7,1,1.8,1.1,1.9C0.8,2,0.4,2,0,2L0,0z"/>
		</g>
		<g id="Group_667" transform="translate(3.027 10.898)">
			<path id="Path_420" class="st7" d="M7.3,8.2H6.7c-0.5-0.1-0.9-0.6-1-1.1c0-1.4,0.1-2.9,0.2-4.3C5.5,2.9,5.1,3,4.7,3
				C4.5,2.9,4.4,2.9,4.2,2.7L3.8,3C3.4,3,3,2.9,2.7,2.9c0.1,1.4,0.1,3,0.2,4.4c-0.1,0.5-0.5,0.9-1,1.1H1.2c-0.5-0.1-0.9-0.6-1-1.1
				L0,1.4C0,0.6,0.6,0,1.4,0c0,0,0,0,0,0c1,0.1,2,0.2,3,0.3c1.4,0.5,2.9,1,4.3,1.5C8.6,3.6,8.5,5.4,8.4,7.3C8.2,7.7,7.8,8.1,7.3,8.2
				z"/>
		</g>
		<g id="Group_668" transform="translate(0 10.898)">
			<path id="Path_421" class="st8" d="M3.1,0L3.1,0C2.8,0.3,2.7,0.7,2.6,1.1C1.8,1.4,1.1,1.6,0.5,2C0.3,1.7,0.2,1.4,0,1.2
				C0.5,1,0.9,0.8,1.4,0.5C2,0.4,2.5,0.2,3.1,0z"/>
		</g>
		<g id="Group_669" transform="translate(5.903 13.85)">
			<path id="Path_422" class="st9" d="M1.2,0C1.5,0.1,1.8,0.1,2,0.2c0.2,0,0.4,0,0.6-0.1v1.2H0V0.1C0.4,0.3,0.9,0.2,1.2,0z"/>
		</g>
	</g>
</g>
</svg>
