<svg xmlns="http://www.w3.org/2000/svg" width="47.8" height="52.489" viewBox="-0.052 0.731 23.9 26.245"><g data-name="seat-booked"><g data-name="Layer_1_00000142892272239534264680000010334023928483500935_"><g data-name="Group 660"><path d="M19.084 12.387c-.076.756-.378 1.21-.908 1.513-.151.152-.454.227-.681.227H6.596c-1.059-.227-1.589-.908-1.589-2.043l.908-5.45c.076-.378.152-.832.227-1.21.152-1.136.379-2.27.606-3.33.151-.681.53-1.136 1.286-1.363h7.947c.681.227 1.135.682 1.362 1.363.606 3.481 1.211 6.887 1.741 10.293Z" fill="#213560" fill-rule="evenodd" data-name="Path 413"/></g><g data-name="Group 661"><path d="M16.9 26.976H7.01c-.718-.303-.958-.757-.718-1.514.16-.302.399-.454.718-.53h3.749V22.36h-7.1c-.797-.302-1.356-.832-1.515-1.589 0-1.287 0-2.573-.08-3.86-.24-.53-.718-.832-1.356-.757-.559-.227-.878-.68-.718-1.286.16-.53.558-.833 1.196-.757 1.755.151 2.792 1.06 3.191 2.649 0 .151 0 .378.08.53.479-.379.957-.53 1.516-.606h12.045c.558.076 1.117.227 1.516.606.08-1.741 1.037-2.8 2.792-3.18 1.037-.15 1.595.304 1.515 1.288-.08.378-.319.605-.718.756-.638-.075-1.116.227-1.356.757-.08 1.287-.08 2.573-.08 3.86-.239.757-.717 1.287-1.515 1.59h-7.1v2.573h3.75c.717.227.957.68.797 1.362-.16.303-.399.53-.718.68Z" fill="#213560" fill-rule="evenodd" data-name="Path 414"/></g></g><g data-name="Layer_3"><g data-name="Group 662"><path d="M9.241 10.402c-.151.227-.378.454-.605.68-.908-.983-1.816-1.967-2.649-3.027.076-.378.151-.832.227-1.21.984 1.21 1.968 2.421 3.027 3.557Z" fill="#d9e6ed" fill-rule="evenodd" data-name="Path 415"/></g><g data-name="Group 663"><path d="M15.145 8.66c-.454-1.134-1.287-1.664-2.498-1.664-.53.075-.984.227-1.438.605-.908.833-1.135 1.817-.681 2.952.757 1.286 1.816 1.665 3.179 1.286 1.286-.68 1.816-1.74 1.438-3.178Zm-2.498 2.044c-.378.152-.53 0-.454-.378l.151-.152c.379 0 .53.152.303.53Zm1.287-.378c-.152-.076-.227-.227-.152-.379 0-.075.076-.151.152-.151.302 0 .454.151.378.378-.076.152-.151.152-.378.152Z" fill="#d9e6ed" fill-rule="evenodd" data-name="Path 416"/></g><g data-name="Group 664"><path d="M9.62 10.78h.757c.832 1.21 1.967 1.59 3.405 1.135.379-.151.757-.378.984-.681h.076a46.059 46.059 0 0 1 3.027 2.346c.076.152.152.227.152.379v4.768c.53.302.983.68 1.438 1.135-.152.227-.379.454-.53.605h-.076c-.53-.454-1.06-.832-1.74-1.135.454-.454.605-.984.302-1.59l-.227-.226c-.303-.152-.53-.303-.832-.454 0-.833 0-1.741-.076-2.574-.53-.454-1.135-.832-1.665-1.286v2.422A42.862 42.862 0 0 1 9.62 10.78Z" fill="#d9e6ed" fill-rule="evenodd" data-name="Path 417"/></g><g data-name="Group 665"><path d="m8.787 11.234 3.406 3.406c.681.605 1.287 1.21 1.968 1.74v.076c-.984-.378-1.968-.681-2.952-1.06a6.942 6.942 0 0 1-.681-1.74h-.227c.151.681.378 1.286.681 1.816 1.892.681 3.784 1.362 5.752 1.968.605.303.757.757.454 1.438-.227.227-.454.378-.757.378-2.27-.68-4.465-1.513-6.66-2.27l-.227-.227c-.605-1.06-.984-2.195-1.21-3.33-.152-.681 0-1.438.453-2.195Z" fill="#d9e6ed" fill-rule="evenodd" data-name="Path 418"/></g><g data-name="Group 666"><path d="M8.712 15.548c.227.53.454.984.756 1.514a.912.912 0 0 0 .379.378c-.379.076-.757.076-1.135.076v-1.968Z" fill="#d9e6ed" fill-rule="evenodd" data-name="Path 419"/></g><g data-name="Group 667"><path d="M14.842 25.992h-.606c-.53-.151-.832-.53-.983-1.06 0-1.437.075-2.875.151-4.313-.378.075-.757.075-1.135.075-.152-.075-.303-.075-.454-.227l-.454.227c-.379 0-.757 0-1.136-.075.076 1.438.076 2.951.152 4.39-.152.529-.454.907-.984 1.059h-.606c-.53-.152-.832-.53-.984-1.06-.075-1.968-.15-3.935-.227-5.903.076-.833.53-1.287 1.363-1.362.984.075 1.967.227 2.951.302 1.438.53 2.876.984 4.314 1.514l-.227 5.45c-.303.529-.605.832-1.135.983Z" fill="#d9e6ed" fill-rule="evenodd" data-name="Path 420"/></g><g data-name="Group 668"><path d="M7.652 17.743c-.227.302-.454.68-.53 1.135-.757.227-1.438.53-2.119.832-.151-.227-.303-.53-.454-.756.454-.227.908-.455 1.438-.682a20.67 20.67 0 0 0 1.665-.53Z" fill="#d9e6ed" fill-rule="evenodd" data-name="Path 421"/></g><g data-name="Group 669"><path d="M11.663 20.694c.227.076.53.152.833.152.227 0 .378 0 .605-.076v1.21h-2.649v-1.21c.379.227.757.151 1.211-.076Z" fill="#d9e6ed" fill-rule="evenodd" data-name="Path 422"/></g></g></g></svg>