<svg xmlns="http://www.w3.org/2000/svg" width="28" height="28" viewBox="0 0 28 28">
  <g id="Group_786" data-name="Group 786" transform="translate(-306 -445.686)">
    <g id="wheel" transform="translate(306 445.686)">
      <g id="Group_785" data-name="Group 785">
        <g id="Group_784" data-name="Group 784">
          <path id="Path_523" data-name="Path 523" d="M94.739,85.333a9.406,9.406,0,1,0,9.406,9.406A9.417,9.417,0,0,0,94.739,85.333Zm4.812,3.514a.588.588,0,0,1,.84-.033,8.186,8.186,0,0,1,2.4,4.25.589.589,0,0,1-.305.645,4.234,4.234,0,0,1-1.913.441,3.061,3.061,0,0,1-2.13-.713C97.442,92.441,97.858,90.725,99.551,88.847Zm-9.624,11.877a.587.587,0,0,1-.413.194h-.023a.588.588,0,0,1-.4-.161,8.185,8.185,0,0,1-2.4-4.251A.589.589,0,0,1,87,95.862a3.823,3.823,0,0,1,4.043.272C92.035,97.129,91.619,98.845,89.927,100.724Zm1.113-7.287a3.061,3.061,0,0,1-2.13.713A4.238,4.238,0,0,1,87,93.709a.589.589,0,0,1-.305-.645,8.187,8.187,0,0,1,2.4-4.25.566.566,0,0,1,.427-.16.587.587,0,0,1,.413.193C91.621,90.725,92.036,92.441,91.04,93.437Zm6.2,9.142a8.223,8.223,0,0,1-5.011,0,.589.589,0,0,1-.409-.6c.147-2.116,1.4-3.711,2.914-3.711s2.767,1.6,2.914,3.711A.589.589,0,0,1,97.245,102.579Zm-4.857-7.839a2.352,2.352,0,1,1,2.352,2.352A2.354,2.354,0,0,1,92.388,94.739Zm5.266-7.192c-.147,2.115-1.4,3.71-2.914,3.71s-2.767-1.6-2.914-3.71a.587.587,0,0,1,.408-.6,8.248,8.248,0,0,1,5.013,0A.587.587,0,0,1,97.653,87.547Zm5.134,8.866a8.186,8.186,0,0,1-2.4,4.251.587.587,0,0,1-.4.161h-.023a.587.587,0,0,1-.413-.193c-1.694-1.878-2.109-3.6-1.113-4.591a3.824,3.824,0,0,1,4.043-.272A.589.589,0,0,1,102.787,96.413Z" transform="translate(-80.739 -80.739)" fill="#9db2bf"/>
          <path id="Path_524" data-name="Path 524" d="M14,0A14,14,0,1,0,28,14,14.016,14.016,0,0,0,14,0Zm0,24.5A10.5,10.5,0,1,1,24.5,14,10.512,10.512,0,0,1,14,24.5Z" fill="#9db2bf"/>
        </g>
      </g>
    </g>
  </g>
</svg>
